<svg width="25" height="19" viewBox="0 0 25 19" fill="none" xmlns="http://www.w3.org/2000/svg">
<path d="M24.4681 0.989258H0.531888C0.528265 0.989258 0.524694 0.989615 0.521122 0.989666L0.521173 0.989819C0.232449 0.995584 0 1.23079 0 1.5212V17.4786C0 17.7726 0.238214 18.0106 0.531888 18.0106H24.4681C24.7618 18.0106 25 17.7726 25 17.4786V1.5212C25 1.22717 24.7618 0.989258 24.4681 0.989258ZM23.184 2.05314L16.1136 9.12354C16.1135 9.12365 16.1134 9.1237 16.1133 9.1238L12.5 12.7371L8.88673 9.1238C8.88653 9.1236 8.88633 9.12344 8.88607 9.12319L1.81602 2.05314H23.184ZM1.06383 2.80523L7.75847 9.49987L1.06383 16.1946V2.80523ZM1.81602 16.9467L8.51066 10.252L12.124 13.8653C12.3091 14.0505 12.5986 14.1428 12.8762 13.8653L16.4894 10.2521L23.1841 16.9467H1.81602ZM23.9362 16.1945L17.2416 9.49987L23.9362 2.80528V16.1945Z" fill="white"/>
</svg>
