<svg width="25" height="25" viewBox="0 0 25 25" fill="none" xmlns="http://www.w3.org/2000/svg">
<path d="M20.3675 3.12182C20.105 3.13402 19.8579 3.21032 19.6381 3.29577H19.6351C19.4123 3.38427 18.3533 3.82982 16.7451 4.50426C15.1368 5.18175 13.0494 6.06066 10.9772 6.93346C6.83906 8.67602 2.77106 10.3911 2.77106 10.3911L2.81989 10.3728C2.81989 10.3728 2.53913 10.4643 2.24616 10.6658C2.09662 10.7634 1.93183 10.8977 1.7884 11.1083C1.64496 11.3188 1.529 11.6423 1.57172 11.975C1.64191 12.5395 2.00812 12.8783 2.27057 13.0644C2.53608 13.2537 2.78937 13.3422 2.78937 13.3422H2.79548L6.61017 14.6269C6.78107 15.1763 7.77289 18.4355 8.01093 19.1863C8.15131 19.6349 8.28864 19.9156 8.45954 20.1293C8.54194 20.2391 8.63959 20.3307 8.75556 20.4039C8.80134 20.4314 8.85016 20.4527 8.89899 20.4711C8.91425 20.4802 8.92951 20.4833 8.94782 20.4863L8.90815 20.4772C8.92035 20.4802 8.92951 20.4894 8.93866 20.4924C8.96918 20.5016 8.99054 20.5046 9.03022 20.5107C9.63447 20.6938 10.1197 20.3185 10.1197 20.3185L10.1472 20.2971L12.3994 18.2463L16.1744 21.1424L16.2598 21.1791C17.0472 21.5239 17.8437 21.3317 18.2648 20.9929C18.689 20.6511 18.8538 20.2147 18.8538 20.2147L18.8813 20.1445L21.7988 5.20006C21.8812 4.8308 21.9025 4.48595 21.811 4.15026C21.7194 3.81457 21.4844 3.50023 21.2006 3.33239C20.9138 3.16149 20.6299 3.10961 20.3675 3.12182ZM20.2882 4.72399C20.2851 4.77282 20.2943 4.76671 20.2729 4.86132V4.87047L17.3829 19.6593C17.3707 19.6807 17.3493 19.7264 17.2913 19.7722C17.2303 19.821 17.1815 19.8516 16.9282 19.7508L12.3109 16.2108L9.52155 18.7529L10.1075 15.0115C10.1075 15.0115 17.3402 8.27013 17.6514 7.98021C17.9627 7.6903 17.859 7.62926 17.859 7.62926C17.8803 7.27526 17.389 7.5255 17.389 7.5255L7.87665 13.4184L7.8736 13.4032L3.31428 11.8682V11.8651C3.31122 11.8651 3.30512 11.8621 3.30207 11.8621C3.30512 11.8621 3.32648 11.8529 3.32648 11.8529L3.3509 11.8407L3.37531 11.8315C3.37531 11.8315 7.44636 10.1164 11.5845 8.37389C13.6567 7.50109 15.7441 6.62218 17.3493 5.94469C18.9545 5.27025 20.1417 4.77587 20.2088 4.7484C20.2729 4.72399 20.2424 4.72399 20.2882 4.72399Z" fill="white"/>
</svg>
