<svg width="25" height="25" viewBox="0 0 25 25" fill="none" xmlns="http://www.w3.org/2000/svg">
<path d="M23.1027 16.2153C23.5871 14.9336 23.8324 13.5877 23.8324 12.2081C23.8324 9.18027 22.6538 6.33426 20.5137 4.1942C18.3737 2.05426 15.5277 0.875691 12.5 0.875691C11.1273 0.875691 9.79266 1.1175 8.52649 1.59505C7.59814 0.576596 6.30138 0 4.91043 0C2.20282 0 0 2.20287 0 4.91048C0 6.35803 0.646649 7.73245 1.74777 8.66202C1.36266 9.81542 1.16761 11.0065 1.16761 12.2081C1.16761 15.2358 2.34612 18.0818 4.48606 20.2218C6.62601 22.3619 9.47213 23.5405 12.5 23.5405C13.7155 23.5405 14.9249 23.3401 16.1012 22.9443C17.0157 24.2223 18.5062 25 20.0896 25C22.7972 25 25 22.7971 25 20.0895C25 18.5651 24.2983 17.1469 23.1027 16.2153ZM20.0896 23.9362C18.7337 23.9362 17.4644 23.2071 16.7772 22.0334C16.6794 21.8664 16.5024 21.7702 16.318 21.7702C16.2554 21.7702 16.192 21.7813 16.1305 21.8045C14.9481 22.2505 13.7266 22.4767 12.5001 22.4767C9.75633 22.4767 7.17745 21.4087 5.23835 19.4696C3.29931 17.5305 2.23149 14.9516 2.23149 12.2081C2.23149 11.0045 2.44814 9.81176 2.87548 8.66293C2.95931 8.43739 2.88138 8.18367 2.68537 8.04415C1.67 7.32138 1.06383 6.14989 1.06383 4.91048C1.06383 2.78942 2.78942 1.06383 4.91043 1.06383C6.10527 1.06383 7.21165 1.60787 7.94585 2.55649C8.09314 2.74665 8.34957 2.81441 8.57149 2.72176C9.81447 2.20271 11.1362 1.93957 12.4999 1.93957C15.2435 1.93957 17.8223 3.00745 19.7615 4.94654C21.7006 6.88564 22.7685 9.46452 22.7685 12.2081C22.7685 13.5884 22.4977 14.9313 21.9636 16.1995C21.8635 16.4372 21.9484 16.7124 22.1648 16.8526C23.274 17.5703 23.9362 18.7804 23.9362 20.0895C23.9362 22.2106 22.2106 23.9362 20.0896 23.9362Z" fill="white"/>
<path d="M13.2874 10.5392C9.60724 9.82395 9.36894 8.6997 10.2544 7.91576C11.1409 7.13246 13.7737 6.77954 14.5137 8.15438C15.2298 9.48273 15.7412 10.0281 16.7287 9.78948C17.6722 9.56198 17.808 8.2564 17.4106 7.47278C17.0901 6.83996 15.6385 5.22363 12.776 5.22363C9.91389 5.22363 6.91511 6.28007 6.91511 8.90379C6.91511 11.5275 9.64139 12.686 12.2651 13.0611C14.8883 13.4357 15.5017 14.5605 15.162 15.3787C14.8215 16.1957 13.6961 16.9791 11.9926 16.8092C10.2885 16.6393 9.50229 15.2123 9.26623 14.4916C9.03932 13.7995 8.24458 13.7082 7.86942 13.7419C7.49426 13.7767 6.3016 14.2544 6.8466 15.9232C7.39219 17.593 9.16469 18.922 12.708 18.922C16.2514 18.922 18.33 16.7407 18.3301 14.6627C18.3301 12.5837 16.9681 11.2553 13.2874 10.5392Z" fill="white"/>
</svg>
