<svg width="126" height="42" viewBox="0 0 126 42" fill="none" xmlns="http://www.w3.org/2000/svg">
<path fill-rule="evenodd" clip-rule="evenodd" d="M40.6219 4.4668H1.11568C0.721926 4.4668 0.393799 4.80013 0.393799 5.20013V35.2001C0.393799 35.6001 0.721926 35.9335 1.11568 35.9335H40.6219C41.0157 35.9335 41.3438 35.6001 41.3438 35.2001V5.20013C41.3438 4.80013 41.0157 4.4668 40.6219 4.4668ZM3.28123 29.6001V8.93345C3.28123 8.73345 3.34686 8.53345 3.47811 8.40012C3.60936 8.26678 3.80623 8.20012 4.00311 8.20012H9.51561C11.2875 8.06678 12.9937 8.60012 14.4375 9.60012C15.0281 10.0668 15.4875 10.7334 15.8156 11.4668C16.1437 12.2001 16.275 13.0001 16.2094 13.8001C16.2094 14.5334 16.1437 15.2001 15.8812 15.8668C15.6187 16.5334 15.2906 17.1334 14.7656 17.6668C14.6344 17.8001 14.5687 17.8668 14.5687 18.0668C14.5031 18.2001 14.5031 18.3334 14.5687 18.5334C14.5687 18.6668 14.6344 18.8001 14.7656 18.9334C14.8312 19.0668 14.9625 19.1334 15.0937 19.2001C15.8156 19.4668 16.4719 19.9334 16.9312 20.5334C17.7844 21.6001 18.1781 22.8668 18.1781 24.2668C18.2437 25.4668 17.9156 26.6001 17.325 27.6668C16.7344 28.6001 15.8812 29.3335 14.8969 29.8001C13.7156 30.1334 12.4687 30.4001 11.1562 30.3334H4.06873C3.93748 30.3334 3.87186 30.3335 3.74061 30.2668C3.71618 30.242 3.68265 30.2264 3.6468 30.2097C3.58636 30.1816 3.5193 30.1505 3.47811 30.0668C3.41248 30.0001 3.34686 29.9334 3.34686 29.8001C3.28123 29.8001 3.28123 29.6668 3.28123 29.6001ZM7.54686 17.2001H8.53123C9.44998 17.2668 10.4344 17.0001 11.2219 16.4668C11.55 16.2001 11.7469 15.8668 11.9437 15.5334C12.075 15.2001 12.2062 14.8001 12.1406 14.4001C12.1406 14.0001 12.075 13.6001 11.9437 13.2668C11.8125 12.9334 11.55 12.6001 11.2219 12.3334C10.4344 11.8001 9.51561 11.6001 8.53123 11.6668H7.54686V17.2001ZM7.54686 26.2001C7.54686 26.4001 7.61248 26.6001 7.74373 26.7334C7.87498 26.8668 8.07186 26.9334 8.26873 26.9334H9.64686C10.6969 27.0001 11.7469 26.7334 12.6656 26.2001C12.9937 25.9334 13.2562 25.6001 13.4531 25.2001C13.65 24.8001 13.7156 24.4001 13.65 23.9334C13.65 23.5334 13.5844 23.0668 13.3875 22.6668C13.1906 22.2668 12.9281 21.9334 12.6 21.6668C11.6812 21.0668 10.6312 20.8001 9.58123 20.8668H8.20311C8.00623 20.8668 7.80936 20.9334 7.67811 21.0668C7.54686 21.2001 7.48123 21.4001 7.48123 21.6001V26.2001H7.54686ZM27.8251 8.73345L19.6876 29.3335C19.622 29.4001 19.622 29.5335 19.622 29.6668C19.6548 29.7335 19.6712 29.7835 19.6876 29.8335C19.704 29.8835 19.7204 29.9335 19.7532 30.0001C19.8188 30.1335 19.8845 30.2001 20.0157 30.2668C20.0813 30.3335 20.2126 30.3335 20.3438 30.3335H23.4282C23.5595 30.3335 23.6907 30.2668 23.822 30.2001C23.9532 30.1335 24.0188 30.0001 24.0845 29.8668L25.5938 25.8001C25.6595 25.6668 25.7251 25.5335 25.8563 25.4668C25.9876 25.4001 26.1188 25.3335 26.2501 25.3335H33.797C33.9282 25.3335 34.0595 25.4001 34.1907 25.4668C34.322 25.5335 34.3876 25.6668 34.4532 25.8001L35.9626 29.8668C36.0282 30.0001 36.0938 30.1335 36.2251 30.2001C36.3563 30.2668 36.4876 30.3335 36.6188 30.3335H39.6376C39.7688 30.3335 39.8345 30.3335 39.9657 30.2668C40.097 30.2001 40.1626 30.1335 40.2282 30.0001C40.2458 29.9644 40.2634 29.9334 40.2797 29.9047C40.3243 29.8263 40.3595 29.7644 40.3595 29.6668C40.3595 29.5335 40.3595 29.4668 40.2938 29.3335L32.1563 8.73345C32.0907 8.60012 32.0251 8.46678 31.8938 8.40012C31.7626 8.33345 31.6313 8.26678 31.5001 8.26678H28.4813C28.3501 8.26678 28.2188 8.33345 28.0876 8.40012C27.9563 8.46678 27.8907 8.60012 27.8251 8.73345ZM32.0907 21.3335C32.0251 21.4001 31.8938 21.4001 31.7626 21.4001H28.2188C28.0876 21.4668 28.022 21.4668 27.8907 21.3335C27.7595 21.2668 27.6938 21.2001 27.6282 21.0668C27.5626 21.0001 27.497 20.8668 27.497 20.7334C27.497 20.6668 27.497 20.5335 27.5626 20.4001L29.3345 15.8001C29.4001 15.6668 29.4657 15.5335 29.597 15.4668C29.7282 15.4001 29.8595 15.3335 29.9907 15.3335C30.122 15.3335 30.2532 15.4001 30.3845 15.4668C30.5157 15.5335 30.5813 15.6668 30.647 15.8001L32.4188 20.4001C32.4845 20.4668 32.4845 20.6001 32.4845 20.7334C32.4845 20.8668 32.4188 21.0001 32.3532 21.0668C32.2876 21.2001 32.222 21.2668 32.0907 21.3335Z" fill="#000917"/>
<path d="M45.8064 0V41.6" stroke="#000917" stroke-width="2" stroke-miterlimit="10" stroke-linecap="round"/>
<path d="M49.9407 19.4666V10.2H51.7126C52.4344 10.2 53.2219 10.4 53.8125 10.8666C54.075 11.0666 54.2719 11.3333 54.4032 11.6666C54.5344 12 54.6 12.2666 54.6 12.6C54.6657 13.0666 54.5344 13.5333 54.2719 13.8666C54.0094 14.2666 53.6813 14.5333 53.2219 14.6666C53.8125 14.7333 54.4032 15 54.7969 15.4C55.1907 15.8666 55.3876 16.4 55.3876 17C55.3876 17.4666 55.2563 17.9333 55.0594 18.3333C54.7969 18.7333 54.4688 19 54.0751 19.2C53.6157 19.4 53.0907 19.5333 52.5657 19.4666H49.9407ZM50.5313 14.4666H51.6469C52.2375 14.5333 52.8938 14.3333 53.3532 14C53.5501 13.8666 53.7469 13.6 53.8125 13.4C53.9438 13.1333 53.9438 12.8666 53.9438 12.6C53.9438 12.3333 53.9438 12.0666 53.8125 11.8C53.6813 11.5333 53.5501 11.3333 53.3532 11.2C52.8282 10.8666 52.2375 10.6666 51.6469 10.7333H50.5313V14.4666ZM50.5313 19H52.3688C52.9594 19.0666 53.6157 18.8666 54.1407 18.4666C54.3375 18.2666 54.5344 18.0666 54.6 17.8C54.7313 17.5333 54.7313 17.2666 54.7313 17C54.7313 16.7333 54.6657 16.4666 54.6 16.2C54.4688 15.9333 54.3375 15.7333 54.1407 15.5333C53.6157 15.1333 53.0251 15 52.3688 15H50.5313V19Z" fill="#000917"/>
<path d="M62.6063 19.6667C62.0157 19.6667 61.3594 19.5333 60.8344 19.2667C60.3094 19 59.7844 18.6667 59.3907 18.2C58.9969 17.7333 58.6032 17.2667 58.4063 16.6667C57.9469 15.4667 57.9469 14.1333 58.4063 12.9333C58.6688 12.3333 58.9969 11.8667 59.3907 11.4C59.7844 10.9334 60.3094 10.6 60.8344 10.3333C61.425 10.0667 62.0157 9.93335 62.6063 9.93335C63.1969 9.93335 63.8532 10.0667 64.3782 10.3333C64.9032 10.6 65.4282 10.9334 65.8219 11.4C66.2157 11.8667 66.5438 12.3333 66.8063 12.9333C67.2657 14.1333 67.2657 15.4667 66.8063 16.6667C66.5438 17.2667 66.2157 17.7333 65.8219 18.2C65.4282 18.6667 64.9032 19 64.3782 19.2667C63.8532 19.5333 63.1969 19.6667 62.6063 19.6667ZM62.6063 19.0667C63.1313 19.0667 63.6563 18.9334 64.1813 18.7334C64.6407 18.5333 65.1 18.2 65.4282 17.8667C66.15 17.0667 66.5438 16 66.5438 14.8667C66.5438 14.0667 66.3469 13.2667 65.8875 12.5333C65.4282 11.8667 64.8375 11.2667 64.1157 10.9333C63.6563 10.7333 63.1313 10.6 62.5407 10.6C62.0157 10.6 61.4907 10.7333 61.0313 10.9333C60.0469 11.4 59.3251 12.2 58.9313 13.2C58.7344 13.7333 58.6032 14.2667 58.6032 14.8667C58.6032 15.4 58.7344 16 58.9313 16.5333C59.1282 17.0667 59.3907 17.4667 59.7844 17.8667C60.1125 18.2667 60.5719 18.5333 61.0313 18.7334C61.5563 18.9334 62.0813 19.0667 62.6063 19.0667Z" fill="#000917"/>
<path d="M70.875 19.4666V10.2H71.4656V14.5333H76.8469V10.2H77.4375V19.4666H76.8469V15.0666H71.5312V19.4666H70.875Z" fill="#000917"/>
<path d="M85.7718 19.6667C85.1812 19.6667 84.5249 19.5333 83.9999 19.2667C83.4749 19 82.95 18.6667 82.5562 18.2C82.1625 17.7333 81.7687 17.2667 81.5718 16.6667C81.1125 15.4667 81.1125 14.1333 81.5718 12.9333C81.8343 12.3333 82.1625 11.8667 82.5562 11.4C82.95 10.9334 83.4749 10.6 83.9999 10.3333C84.5906 10.0667 85.1812 9.93335 85.7718 9.93335C86.3624 9.93335 87.0187 10.0667 87.5437 10.3333C88.0687 10.6 88.5937 10.9334 88.9875 11.4C89.3812 11.8667 89.775 12.3333 89.9718 12.9333C90.4312 14.1333 90.4312 15.4667 89.9718 16.6667C89.7093 17.2667 89.3812 17.7333 88.9875 18.2C88.5937 18.6667 88.0687 19 87.5437 19.2667C86.9531 19.5333 86.3624 19.6667 85.7718 19.6667ZM85.7718 19.0667C86.2968 19.0667 86.8218 18.9334 87.3468 18.7334C87.8062 18.5333 88.2656 18.2 88.5937 17.8667C88.9874 17.4667 89.25 17 89.4468 16.5333C89.6437 16 89.775 15.4667 89.775 14.8667C89.775 14.3333 89.6437 13.7333 89.4468 13.2C89.0531 12.2 88.3312 11.4 87.3468 10.9333C86.8875 10.7333 86.2968 10.6 85.7718 10.6C85.2468 10.6 84.7218 10.7333 84.2624 10.9333C83.2781 11.4 82.5562 12.2 82.1624 13.2C81.9656 13.7333 81.8343 14.2667 81.8343 14.8667C81.8343 15.4 81.9656 16 82.1624 16.5333C82.3593 17.0667 82.6218 17.4667 83.0156 17.8667C83.3437 18.2667 83.8031 18.5333 84.2624 18.7334C84.7218 18.9334 85.2468 19.0667 85.7718 19.0667Z" fill="#000917"/>
<path d="M49.4812 33.0001L53.025 23.6667H53.6156L57.2249 33.0001H56.5687L55.3875 29.8001H51.3843L50.1375 33.0001H49.4812ZM51.5156 29.2667H55.125L53.2874 24.4667L51.5156 29.2667Z" fill="#000917"/>
<path d="M60.572 33.0001V23.6667H65.1001V24.2001H60.9001L61.2283 24.0001V28.5334L60.9001 28.0001H64.8376V28.5334H60.9001L61.2283 28.0001V32.8667L60.572 33.0001Z" fill="#000917"/>
<path d="M68.5781 33.0001V23.6667H73.1063V24.2001H68.9062L69.2344 24.0001V28.5334L68.9062 28.0001H72.8437V28.5334H68.9062L69.2344 28.0001V32.8667L68.5781 33.0001Z" fill="#000917"/>
<path d="M76.5188 33.0001V23.6667H77.1094V33.0001H76.5188Z" fill="#000917"/>
<path d="M81.3093 33.0001V23.6667H81.9V32.4001H85.8375V33.0001H81.3093Z" fill="#000917"/>
<path d="M89.25 33.0001V23.6667H89.8406V33.0001H89.25Z" fill="#000917"/>
<path d="M93.2532 33.0001L96.7969 23.7334H97.3875L100.997 33.0001H100.341L99.1594 29.8001H95.1563L93.8438 33.0001H93.2532ZM95.2875 29.2667H98.8969L97.0594 24.4667L95.2875 29.2667Z" fill="#000917"/>
<path d="M105.853 33.0001V24.2667H102.966V23.6667H109.397V24.2667H106.509V33.0001H105.853Z" fill="#000917"/>
<path d="M112.744 33.0001V23.6667H117.206V24.2001H113.4V28.0001H117.141V28.5334H113.4V32.4001H117.272V33.0001H112.744Z" fill="#000917"/>
<path d="M123.113 33.1334C122.653 33.1334 122.259 33.0668 121.866 32.8668C121.537 32.7334 121.209 32.5334 120.947 32.3334C120.75 32.1334 120.553 31.9334 120.356 31.7334C120.225 31.5334 120.159 31.4001 120.094 31.2668L120.488 30.8668C120.684 31.2668 120.947 31.6001 121.275 31.8668C121.669 32.2001 122.194 32.4668 122.653 32.5334C123.112 32.6001 123.703 32.5334 124.228 32.3334C124.556 32.2001 124.819 32.0001 125.016 31.7334C125.213 31.4668 125.344 31.1334 125.344 30.8001C125.409 30.4668 125.344 30.1334 125.213 29.8001C125.081 29.4668 124.884 29.2001 124.556 29.0668C124.294 28.8668 124.031 28.7334 123.769 28.6001C123.441 28.4668 123.178 28.3334 122.85 28.2668L122.194 28.0001C121.931 27.8668 121.734 27.7334 121.472 27.6001C121.275 27.4001 121.078 27.2001 120.947 26.9334C120.816 26.6668 120.75 26.3334 120.75 26.0001C120.75 25.3334 121.013 24.7334 121.472 24.2668C121.669 24.0668 121.931 23.8668 122.259 23.7334C122.916 23.4668 123.637 23.4668 124.294 23.7334C124.556 23.8668 124.819 24.0001 125.081 24.2001C125.278 24.4001 125.409 24.6001 125.541 24.8001L125.213 25.2001C125.081 25.0001 124.95 24.8001 124.819 24.6668C124.622 24.4668 124.425 24.3334 124.162 24.2668C123.9 24.1334 123.572 24.1334 123.309 24.1334C122.916 24.1334 122.588 24.2001 122.259 24.4001C121.997 24.6001 121.734 24.8001 121.603 25.1334C121.472 25.4001 121.406 25.7334 121.406 26.0668C121.406 26.3334 121.472 26.6001 121.603 26.8001C121.734 27.0001 121.866 27.2001 122.062 27.3334C122.259 27.4668 122.456 27.6001 122.719 27.6668C122.916 27.8001 123.178 27.8668 123.375 27.9334C123.572 28.0001 124.031 28.2001 124.359 28.3334C124.688 28.4668 124.95 28.6668 125.213 28.8668C125.475 29.0668 125.672 29.3334 125.869 29.6001C126.066 29.9334 126.131 30.3334 126.131 30.7334C126.131 31.2001 126 31.6668 125.803 32.0668C125.541 32.4668 125.213 32.8001 124.753 33.0001C124.097 33.0668 123.638 33.2001 123.113 33.1334Z" fill="#000917"/>
</svg>
